<?xml version="1.0" encoding="UTF-8"?>
<svg width="24px" height="24px" viewBox="0 0 24 24" version="1.1" xmlns="http://www.w3.org/2000/svg" xmlns:xlink="http://www.w3.org/1999/xlink">
    <!-- Generator: Sketch 46.2 (44496) - http://www.bohemiancoding.com/sketch -->
    <title>Icon/Shipping</title>
    <desc>Created with Sketch.</desc>
    <defs>
        <path d="M19,4 L16,4 L16,0 L2,0 C0.9,0 0,0.9 0,2 L0,13 L2,13 C2,14.66 3.34,16 5,16 C6.66,16 8,14.66 8,13 L14,13 C14,14.66 15.34,16 17,16 C18.66,16 20,14.66 20,13 L22,13 L22,8 L19,4 L19,4 Z M5,14.5 C4.17,14.5 3.5,13.83 3.5,13 C3.5,12.17 4.17,11.5 5,11.5 C5.83,11.5 6.5,12.17 6.5,13 C6.5,13.83 5.83,14.5 5,14.5 L5,14.5 Z M18.5,5.5 L20.46,8 L16,8 L16,5.5 L18.5,5.5 L18.5,5.5 Z M17,14.5 C16.17,14.5 15.5,13.83 15.5,13 C15.5,12.17 16.17,11.5 17,11.5 C17.83,11.5 18.5,12.17 18.5,13 C18.5,13.83 17.83,14.5 17,14.5 L17,14.5 Z" id="path-1"></path>
    </defs>
    <g id="Symbols" stroke="none" stroke-width="1" fill="none" fill-rule="evenodd">
        <g id="Icon/Shipping">
            <rect id="Bounding-Box" x="0" y="0" width="24" height="24"></rect>
            <g id="↳-🎨Color" transform="translate(1.000000, 4.000000)">
                <g>
                    <mask id="mask-2" fill="white">
                        <use xlink:href="#path-1"></use>
                    </mask>
                    <use id="Mask" fill="#000000" xlink:href="#path-1"></use>
                    <g mask="url(#mask-2)">
                        <g transform="translate(-1.000000, -4.000000)">
                            <g>
                                <g id="Mixin/Fill/Black" fill="#f5f7fa">
                                    <rect id="Rectangle" x="0" y="0" width="100" height="40"></rect>
                                </g>
                            </g>
                        </g>
                    </g>
                </g>
            </g>
        </g>
    </g>
</svg>